<svg width="40" height="40" viewBox="0 0 40 40" fill="none" xmlns="http://www.w3.org/2000/svg">
<path d="M19.9992 38.4923C19.882 38.375 19.7229 38.3091 19.557 38.3091C19.3912 38.3091 19.2321 38.375 19.1148 38.4923C18.9975 38.6095 18.9316 38.7686 18.9316 38.9345C18.9316 39.1003 18.9975 39.2594 19.1148 39.3767L19.5555 39.8173C19.6135 39.8754 19.6824 39.9215 19.7583 39.953C19.8342 39.9844 19.9155 40.0006 19.9977 40.0006C20.0798 40.0006 20.1611 39.9844 20.237 39.953C20.3129 39.9215 20.3818 39.8754 20.4399 39.8173L20.8837 39.3767C21.0009 39.2594 21.0668 39.1003 21.0668 38.9345C21.0668 38.7686 21.0009 38.6095 20.8837 38.4923C20.7664 38.375 20.6073 38.3091 20.4414 38.3091C20.2756 38.3091 20.1165 38.375 19.9992 38.4923Z" fill="#B20932"/>
<path d="M6.13009 24.6221C6.07202 24.5641 6.00308 24.518 5.9272 24.4866C5.85133 24.4551 5.77001 24.439 5.68788 24.439C5.60575 24.439 5.52443 24.4551 5.44856 24.4866C5.37268 24.518 5.30374 24.5641 5.24567 24.6221C5.1876 24.6802 5.14153 24.7491 5.1101 24.825C5.07868 24.9009 5.0625 24.9822 5.0625 25.0643C5.0625 25.1465 5.07868 25.2278 5.1101 25.3037C5.14153 25.3795 5.1876 25.4485 5.24567 25.5066L6.18322 26.4441C6.3005 26.5614 6.45957 26.6273 6.62543 26.6273C6.79129 26.6273 6.95036 26.5614 7.06764 26.4441C7.18492 26.3268 7.25081 26.1678 7.25081 26.0019C7.25081 25.836 7.18492 25.677 7.06764 25.5597L6.13009 24.6221Z" fill="#B20932"/>
<path d="M17.2238 35.7208C17.1066 35.6035 16.9475 35.5376 16.7816 35.5376C16.6158 35.5376 16.4567 35.6035 16.3394 35.7208C16.2221 35.838 16.1562 35.9971 16.1562 36.163C16.1562 36.3288 16.2221 36.4879 16.3394 36.6052L17.277 37.5427C17.3943 37.66 17.5533 37.7259 17.7192 37.7259C17.885 37.7259 18.0441 37.66 18.1614 37.5427C18.2787 37.4255 18.3446 37.2664 18.3446 37.1005C18.3446 36.9347 18.2787 36.7756 18.1614 36.6583L17.2238 35.7208Z" fill="#B20932"/>
<path d="M3.35861 21.8507C3.24133 21.7334 3.08226 21.6675 2.9164 21.6675C2.75054 21.6675 2.59147 21.7334 2.47419 21.8507C2.3569 21.9679 2.29102 22.127 2.29102 22.2929C2.29102 22.4587 2.3569 22.6178 2.47419 22.7351L3.41174 23.6726C3.52902 23.7899 3.68809 23.8558 3.85395 23.8558C4.01981 23.8558 4.17888 23.7899 4.29616 23.6726C4.41344 23.5553 4.47933 23.3963 4.47933 23.2304C4.47933 23.0646 4.41344 22.9055 4.29616 22.7882L3.35861 21.8507Z" fill="#B20932"/>
<path d="M14.4524 32.9454C14.3351 32.8281 14.176 32.7622 14.0101 32.7622C13.8443 32.7622 13.6852 32.8281 13.5679 32.9454C13.4507 33.0627 13.3848 33.2217 13.3848 33.3876C13.3848 33.5534 13.4507 33.7125 13.5679 33.8298L14.5055 34.7673C14.6228 34.8846 14.7818 34.9505 14.9477 34.9505C15.1136 34.9505 15.2726 34.8846 15.3899 34.7673C15.5072 34.6501 15.5731 34.491 15.5731 34.3251C15.5731 34.1593 15.5072 34.0002 15.3899 33.8829L14.4524 32.9454Z" fill="#B20932"/>
<path d="M11.677 30.17C11.5597 30.0527 11.4006 29.9868 11.2348 29.9868C11.0689 29.9868 10.9098 30.0527 10.7925 30.17C10.6753 30.2873 10.6094 30.4463 10.6094 30.6122C10.6094 30.7781 10.6753 30.9371 10.7925 31.0544L11.7301 31.992C11.7882 32.05 11.8571 32.0961 11.933 32.1275C12.0089 32.159 12.0902 32.1751 12.1723 32.1751C12.2544 32.1751 12.3358 32.159 12.4116 32.1275C12.4875 32.0961 12.5564 32.05 12.6145 31.992C12.6726 31.9339 12.7187 31.8649 12.7501 31.7891C12.7815 31.7132 12.7977 31.6319 12.7977 31.5497C12.7977 31.4676 12.7815 31.3863 12.7501 31.3104C12.7187 31.2345 12.6726 31.1656 12.6145 31.1075L11.677 30.17Z" fill="#B20932"/>
<path d="M8.90548 27.398C8.84741 27.3399 8.77847 27.2939 8.70259 27.2624C8.62672 27.231 8.5454 27.2148 8.46327 27.2148C8.38115 27.2148 8.29982 27.231 8.22395 27.2624C8.14807 27.2939 8.07913 27.3399 8.02106 27.398C7.96299 27.4561 7.91692 27.525 7.8855 27.6009C7.85407 27.6768 7.83789 27.7581 7.83789 27.8402C7.83789 27.9224 7.85407 28.0037 7.8855 28.0795C7.91692 28.1554 7.96299 28.2244 8.02106 28.2824L8.95861 29.22C9.01668 29.2781 9.08562 29.3241 9.1615 29.3556C9.23737 29.387 9.3187 29.4032 9.40082 29.4032C9.48295 29.4032 9.56427 29.387 9.64014 29.3556C9.71602 29.3241 9.78496 29.2781 9.84303 29.22C9.9011 29.1619 9.94717 29.093 9.9786 29.0171C10.01 28.9412 10.0262 28.8599 10.0262 28.7778C10.0262 28.6956 10.01 28.6143 9.9786 28.5385C9.94717 28.4626 9.9011 28.3936 9.84303 28.3356L8.90548 27.398Z" fill="#B20932"/>
<path d="M1.50838 19.1159C1.45034 19.0578 1.3814 19.0117 1.30552 18.9803C1.22965 18.9488 1.14831 18.9326 1.06617 18.9326C0.984034 18.9326 0.902701 18.9488 0.826823 18.9803C0.750945 19.0117 0.682011 19.0578 0.623962 19.1159L0.183314 19.5597C0.125201 19.6178 0.0790987 19.6867 0.0476444 19.7626C0.01619 19.8384 0 19.9198 0 20.0019C0 20.0841 0.01619 20.1654 0.0476444 20.2413C0.0790987 20.3171 0.125201 20.3861 0.183314 20.4441L0.623962 20.8848C0.682034 20.9428 0.750976 20.9889 0.82685 21.0203C0.902725 21.0518 0.984047 21.0679 1.06617 21.0679C1.1483 21.0679 1.22962 21.0518 1.3055 21.0203C1.38137 20.9889 1.45031 20.9428 1.50838 20.8848C1.56646 20.8267 1.61252 20.7578 1.64395 20.6819C1.67538 20.606 1.69155 20.5247 1.69155 20.4426C1.69155 20.3604 1.67538 20.2791 1.64395 20.2032C1.61252 20.1274 1.56646 20.0584 1.50838 20.0004C1.5665 19.9423 1.6126 19.8734 1.64405 19.7975C1.67551 19.7216 1.6917 19.6403 1.6917 19.5581C1.6917 19.476 1.67551 19.3947 1.64405 19.3188C1.6126 19.2429 1.5665 19.174 1.50838 19.1159Z" fill="#B20932"/>
<path d="M11.7184 8.02106L10.7808 8.95861C10.7228 9.01668 10.6767 9.08562 10.6453 9.1615C10.6138 9.23737 10.5977 9.3187 10.5977 9.40082C10.5977 9.48295 10.6138 9.56427 10.6453 9.64014C10.6767 9.71602 10.7228 9.78496 10.7808 9.84303C10.8981 9.96031 11.0572 10.0262 11.223 10.0262C11.3052 10.0262 11.3865 10.01 11.4624 9.9786C11.5382 9.94717 11.6072 9.9011 11.6652 9.84303L12.6028 8.90548C12.7201 8.7882 12.786 8.62913 12.786 8.46327C12.786 8.29741 12.7201 8.13834 12.6028 8.02106C12.4855 7.90378 12.3264 7.83789 12.1606 7.83789C11.9947 7.83789 11.8357 7.90378 11.7184 8.02106Z" fill="#B20932"/>
<path d="M14.4938 5.24665L13.5562 6.1842C13.4981 6.24227 13.4521 6.31121 13.4207 6.38708C13.3892 6.46296 13.373 6.54428 13.373 6.62641C13.373 6.70853 13.3892 6.78986 13.4207 6.86573C13.4521 6.94161 13.4981 7.01055 13.5562 7.06862C13.6143 7.12669 13.6832 7.17276 13.7591 7.20418C13.835 7.23561 13.9163 7.25179 13.9984 7.25179C14.0806 7.25179 14.1619 7.23561 14.2378 7.20418C14.3136 7.17276 14.3826 7.12669 14.4406 7.06862L15.3782 6.13107C15.4955 6.01379 15.5614 5.85472 15.5614 5.68886C15.5614 5.523 15.4955 5.36393 15.3782 5.24665C15.2609 5.12936 15.1018 5.06348 14.936 5.06348C14.7701 5.06348 14.611 5.12936 14.4938 5.24665Z" fill="#B20932"/>
<path d="M8.94689 10.7935L8.00934 11.7311C7.95127 11.7891 7.9052 11.8581 7.87378 11.934C7.84235 12.0098 7.82617 12.0912 7.82617 12.1733C7.82617 12.2554 7.84235 12.3367 7.87378 12.4126C7.9052 12.4885 7.95127 12.5574 8.00934 12.6155C8.06741 12.6736 8.13636 12.7196 8.21223 12.7511C8.2881 12.7825 8.36943 12.7987 8.45155 12.7987C8.53368 12.7987 8.615 12.7825 8.69088 12.7511C8.76675 12.7196 8.83569 12.6736 8.89376 12.6155L9.83131 11.6779C9.9486 11.5607 10.0145 11.4016 10.0145 11.2357C10.0145 11.0699 9.9486 10.9108 9.83131 10.7935C9.71403 10.6762 9.55496 10.6104 9.3891 10.6104C9.22324 10.6104 9.06417 10.6762 8.94689 10.7935Z" fill="#B20932"/>
<path d="M17.2653 2.47419L16.3277 3.41174C16.2696 3.46981 16.2236 3.53875 16.1921 3.61462C16.1607 3.6905 16.1445 3.77182 16.1445 3.85395C16.1445 3.93607 16.1607 4.01739 16.1921 4.09327C16.2236 4.16914 16.2696 4.23809 16.3277 4.29616C16.445 4.41344 16.6041 4.47933 16.7699 4.47933C16.852 4.47933 16.9334 4.46315 17.0092 4.43172C17.0851 4.40029 17.1541 4.35423 17.2121 4.29616L18.1497 3.35861C18.267 3.24133 18.3328 3.08226 18.3328 2.9164C18.3328 2.75054 18.267 2.59147 18.1497 2.47419C18.0324 2.3569 17.8733 2.29102 17.7075 2.29102C17.5416 2.29102 17.3825 2.3569 17.2653 2.47419Z" fill="#B20932"/>
<path d="M6.1715 13.5689L5.23395 14.5065C5.17588 14.5645 5.12981 14.6335 5.09839 14.7093C5.06696 14.7852 5.05078 14.8665 5.05078 14.9487C5.05078 15.0308 5.06696 15.1121 5.09839 15.188C5.12981 15.2639 5.17588 15.3328 5.23395 15.3909C5.35123 15.5082 5.5103 15.5741 5.67616 15.5741C5.75829 15.5741 5.83961 15.5579 5.91549 15.5264C5.99136 15.495 6.0603 15.449 6.11837 15.3909L7.05592 14.4533C7.17321 14.3361 7.23909 14.177 7.23909 14.0111C7.23909 13.8453 7.17321 13.6862 7.05592 13.5689C6.93864 13.4516 6.77957 13.3857 6.61371 13.3857C6.44785 13.3857 6.28878 13.4516 6.1715 13.5689Z" fill="#B20932"/>
<path d="M3.40002 16.3453L2.46247 17.2828C2.34519 17.4001 2.2793 17.5592 2.2793 17.725C2.2793 17.8909 2.34519 18.05 2.46247 18.1673C2.57975 18.2845 2.73882 18.3504 2.90468 18.3504C3.07054 18.3504 3.22961 18.2845 3.34689 18.1673L4.28444 17.2297C4.40172 17.1124 4.46761 16.9534 4.46761 16.7875C4.46761 16.6216 4.40172 16.4626 4.28444 16.3453C4.16716 16.228 4.00809 16.1621 3.84223 16.1621C3.67637 16.1621 3.5173 16.228 3.40002 16.3453Z" fill="#B20932"/>
<path d="M19.5586 0.182243L19.1148 0.622892C19.0567 0.680964 19.0107 0.749905 18.9792 0.82578C18.9478 0.901655 18.9316 0.982976 18.9316 1.0651C18.9316 1.14723 18.9478 1.22855 18.9792 1.30443C19.0107 1.3803 19.0567 1.44924 19.1148 1.50731C19.2321 1.6246 19.3912 1.69048 19.557 1.69048C19.6391 1.69048 19.7205 1.67431 19.7963 1.64288C19.8722 1.61145 19.9412 1.56539 19.9992 1.50731C20.0573 1.56539 20.1262 1.61145 20.2021 1.64288C20.278 1.67431 20.3593 1.69048 20.4414 1.69048C20.5236 1.69048 20.6049 1.67431 20.6808 1.64288C20.7566 1.61145 20.8256 1.56539 20.8837 1.50731C20.9417 1.44924 20.9878 1.3803 21.0192 1.30443C21.0506 1.22855 21.0668 1.14723 21.0668 1.0651C21.0668 0.982976 21.0506 0.901655 21.0192 0.82578C20.9878 0.749905 20.9417 0.680964 20.8837 0.622892L20.4399 0.182243C20.3228 0.0658303 20.1644 0.000488281 19.9992 0.000488281C19.8341 0.000488281 19.6757 0.0658303 19.5586 0.182243Z" fill="#B20932"/>
<path d="M31.5371 12.7841C31.6604 12.7835 31.7807 12.7466 31.883 12.6779C31.9853 12.6092 32.065 12.5117 32.1121 12.3979C32.1592 12.284 32.1716 12.1587 32.1477 12.0378C32.1238 11.9169 32.0647 11.8058 31.9778 11.7184L31.0402 10.7808C30.923 10.6635 30.7639 10.5977 30.598 10.5977C30.4322 10.5977 30.2731 10.6635 30.1558 10.7808C30.0385 10.8981 29.9727 11.0572 29.9727 11.223C29.9727 11.3889 30.0385 11.548 30.1558 11.6652L31.0934 12.6028C31.1518 12.6607 31.221 12.7066 31.2972 12.7377C31.3733 12.7688 31.4549 12.7845 31.5371 12.7841Z" fill="#B20932"/>
<path d="M34.3106 15.556C34.4338 15.5555 34.5542 15.5186 34.6565 15.4499C34.7588 15.3811 34.8385 15.2837 34.8856 15.1698C34.9327 15.0559 34.945 14.9307 34.9211 14.8098C34.8972 14.6889 34.8381 14.5777 34.7512 14.4903L33.8137 13.5528C33.6964 13.4355 33.5373 13.3696 33.3715 13.3696C33.2056 13.3696 33.0465 13.4355 32.9293 13.5528C32.812 13.6701 32.7461 13.8291 32.7461 13.995C32.7461 14.1609 32.812 14.3199 32.9293 14.4372L33.8668 15.3748C33.9252 15.4327 33.9945 15.4785 34.0706 15.5096C34.1468 15.5407 34.2283 15.5565 34.3106 15.556Z" fill="#B20932"/>
<path d="M28.75 9.99841C28.8733 9.9979 28.9936 9.96096 29.0959 9.89224C29.1982 9.82353 29.2779 9.7261 29.325 9.61222C29.3721 9.49833 29.3845 9.37306 29.3606 9.25217C29.3367 9.13127 29.2776 9.02013 29.1907 8.93273L28.2531 7.99518C28.1951 7.93711 28.1261 7.89104 28.0503 7.85962C27.9744 7.82819 27.8931 7.81201 27.8109 7.81201C27.7288 7.81201 27.6475 7.82819 27.5716 7.85962C27.4957 7.89104 27.4268 7.93711 27.3687 7.99518C27.3106 8.05325 27.2646 8.1222 27.2331 8.19807C27.2017 8.27394 27.1855 8.35527 27.1855 8.43739C27.1855 8.51952 27.2017 8.60084 27.2331 8.67672C27.2646 8.75259 27.3106 8.82153 27.3687 8.8796L28.3063 9.81715C28.3647 9.87508 28.4339 9.92091 28.5101 9.95202C28.5862 9.98312 28.6678 9.99889 28.75 9.99841Z" fill="#B20932"/>
<path d="M36.6422 18.1482C36.7595 18.2655 36.9186 18.3314 37.0844 18.3314C37.2503 18.3314 37.4093 18.2655 37.5266 18.1482C37.6439 18.0309 37.7098 17.8719 37.7098 17.706C37.7098 17.5401 37.6439 17.3811 37.5266 17.2638L36.5891 16.3262C36.4718 16.209 36.3127 16.1431 36.1469 16.1431C35.981 16.1431 35.8219 16.209 35.7047 16.3262C35.5874 16.4435 35.5215 16.6026 35.5215 16.7684C35.5215 16.9343 35.5874 17.0934 35.7047 17.2107L36.6422 18.1482Z" fill="#B20932"/>
<path d="M21.8493 2.47433C21.7912 2.53238 21.7451 2.60131 21.7137 2.67719C21.6822 2.75307 21.666 2.8344 21.666 2.91654C21.666 2.99868 21.6822 3.08001 21.7137 3.15589C21.7451 3.23177 21.7912 3.3007 21.8493 3.35875L22.7869 4.2963C22.9042 4.41358 23.0632 4.47947 23.2291 4.47947C23.395 4.47947 23.554 4.41358 23.6713 4.2963C23.7886 4.17902 23.8545 4.01995 23.8545 3.85409C23.8545 3.68823 23.7886 3.52916 23.6713 3.41188L22.7338 2.47433C22.6757 2.41622 22.6068 2.37011 22.5309 2.33866C22.455 2.30721 22.3737 2.29102 22.2915 2.29102C22.2094 2.29102 22.1281 2.30721 22.0522 2.33866C21.9763 2.37011 21.9074 2.41622 21.8493 2.47433Z" fill="#B20932"/>
<path d="M24.6228 5.24581C24.5647 5.30386 24.5186 5.3728 24.4871 5.44867C24.4556 5.52455 24.4395 5.60589 24.4395 5.68802C24.4395 5.77016 24.4556 5.8515 24.4871 5.92738C24.5186 6.00325 24.5647 6.07219 24.6228 6.13024L25.5603 7.06779C25.6776 7.18507 25.8367 7.25096 26.0025 7.25096C26.1684 7.25096 26.3275 7.18507 26.4447 7.06779C26.562 6.9505 26.6279 6.79144 26.6279 6.62557C26.6279 6.45971 26.562 6.30065 26.4447 6.18336L25.5072 5.24581C25.4491 5.1877 25.3802 5.1416 25.3043 5.11014C25.2284 5.07869 25.1471 5.0625 25.065 5.0625C24.9828 5.0625 24.9015 5.07869 24.8256 5.11014C24.7497 5.1416 24.6808 5.1877 24.6228 5.24581Z" fill="#B20932"/>
<path d="M39.3762 19.1163C39.2589 18.999 39.0998 18.9331 38.934 18.9331C38.7681 18.9331 38.609 18.999 38.4918 19.1163C38.3745 19.2336 38.3086 19.3926 38.3086 19.5585C38.3086 19.7243 38.3745 19.8834 38.4918 20.0007C38.4337 20.0588 38.3876 20.1277 38.3562 20.2036C38.3248 20.2795 38.3086 20.3608 38.3086 20.4429C38.3086 20.525 38.3248 20.6064 38.3562 20.6822C38.3876 20.7581 38.4337 20.827 38.4918 20.8851C38.5498 20.9432 38.6188 20.9893 38.6947 21.0207C38.7705 21.0521 38.8518 21.0683 38.934 21.0683C39.0161 21.0683 39.0974 21.0521 39.1733 21.0207C39.2492 20.9893 39.3181 20.9432 39.3762 20.8851L39.8168 20.4445C39.8749 20.3864 39.921 20.3175 39.9525 20.2416C39.984 20.1657 40.0001 20.0844 40.0001 20.0023C40.0001 19.9201 39.984 19.8388 39.9525 19.7629C39.921 19.687 39.8749 19.6181 39.8168 19.56L39.3762 19.1163Z" fill="#B20932"/>
<path d="M22.775 35.7208L21.8375 36.6583C21.7202 36.7756 21.6543 36.9347 21.6543 37.1005C21.6543 37.2664 21.7202 37.4255 21.8375 37.5427C21.9547 37.66 22.1138 37.7259 22.2797 37.7259C22.4455 37.7259 22.6046 37.66 22.7219 37.5427L23.6594 36.6052C23.7767 36.4879 23.8426 36.3288 23.8426 36.163C23.8426 35.9971 23.7767 35.838 23.6594 35.7208C23.5422 35.6035 23.3831 35.5376 23.2172 35.5376C23.0514 35.5376 22.8923 35.6035 22.775 35.7208Z" fill="#B20932"/>
<path d="M31.0934 27.398L30.1558 28.3356C30.0978 28.3936 30.0517 28.4626 30.0203 28.5385C29.9888 28.6143 29.9727 28.6956 29.9727 28.7778C29.9727 28.8599 29.9888 28.9412 30.0203 29.0171C30.0517 29.093 30.0978 29.1619 30.1558 29.22C30.2139 29.2781 30.2828 29.3241 30.3587 29.3556C30.4346 29.387 30.5159 29.4032 30.598 29.4032C30.6802 29.4032 30.7615 29.387 30.8374 29.3556C30.9132 29.3241 30.9822 29.2781 31.0402 29.22L31.9778 28.2824C32.0359 28.2244 32.0819 28.1554 32.1134 28.0795C32.1448 28.0037 32.161 27.9224 32.161 27.8402C32.161 27.7581 32.1448 27.6768 32.1134 27.6009C32.0819 27.525 32.0359 27.4561 31.9778 27.398C31.9197 27.3399 31.8508 27.2939 31.7749 27.2624C31.699 27.231 31.6177 27.2148 31.5356 27.2148C31.4535 27.2148 31.3721 27.231 31.2963 27.2624C31.2204 27.2939 31.1514 27.3399 31.0934 27.398Z" fill="#B20932"/>
<path d="M33.8688 24.6221L32.9312 25.5597C32.8139 25.677 32.748 25.836 32.748 26.0019C32.748 26.1678 32.8139 26.3268 32.9312 26.4441C33.0485 26.5614 33.2076 26.6273 33.3734 26.6273C33.5393 26.6273 33.6984 26.5614 33.8156 26.4441L34.7532 25.5066C34.8705 25.3893 34.9364 25.2302 34.9364 25.0643C34.9364 24.8985 34.8705 24.7394 34.7532 24.6221C34.6359 24.5049 34.4768 24.439 34.311 24.439C34.1451 24.439 33.986 24.5049 33.8688 24.6221Z" fill="#B20932"/>
<path d="M36.6422 21.8507L35.7047 22.7882C35.5874 22.9055 35.5215 23.0646 35.5215 23.2304C35.5215 23.3963 35.5874 23.5553 35.7047 23.6726C35.8219 23.7899 35.981 23.8558 36.1469 23.8558C36.3127 23.8558 36.4718 23.7899 36.5891 23.6726L37.5266 22.7351C37.6439 22.6178 37.7098 22.4587 37.7098 22.2929C37.7098 22.127 37.6439 21.9679 37.5266 21.8507C37.4093 21.7334 37.2503 21.6675 37.0844 21.6675C36.9186 21.6675 36.7595 21.7334 36.6422 21.8507Z" fill="#B20932"/>
<path d="M25.5465 32.9454L24.609 33.8829C24.5509 33.941 24.5048 34.0099 24.4734 34.0858C24.442 34.1617 24.4258 34.243 24.4258 34.3251C24.4258 34.4073 24.442 34.4886 24.4734 34.5645C24.5048 34.6403 24.5509 34.7093 24.609 34.7673C24.667 34.8254 24.736 34.8715 24.8118 34.9029C24.8877 34.9343 24.969 34.9505 25.0512 34.9505C25.1333 34.9505 25.2146 34.9343 25.2905 34.9029C25.3664 34.8715 25.4353 34.8254 25.4934 34.7673L26.4309 33.8298C26.489 33.7717 26.5351 33.7028 26.5665 33.6269C26.5979 33.551 26.6141 33.4697 26.6141 33.3876C26.6141 33.3055 26.5979 33.2241 26.5665 33.1483C26.5351 33.0724 26.489 33.0034 26.4309 32.9454C26.3729 32.8873 26.3039 32.8412 26.228 32.8098C26.1522 32.7784 26.0708 32.7622 25.9887 32.7622C25.9066 32.7622 25.8253 32.7784 25.7494 32.8098C25.6735 32.8412 25.6046 32.8873 25.5465 32.9454Z" fill="#B20932"/>
<path d="M28.3219 30.17L27.3843 31.1075C27.3263 31.1656 27.2802 31.2345 27.2488 31.3104C27.2173 31.3863 27.2012 31.4676 27.2012 31.5497C27.2012 31.6319 27.2173 31.7132 27.2488 31.7891C27.2802 31.8649 27.3263 31.9339 27.3843 31.992C27.4424 32.05 27.5114 32.0961 27.5872 32.1275C27.6631 32.159 27.7444 32.1751 27.8266 32.1751C27.9087 32.1751 27.99 32.159 28.0659 32.1275C28.1418 32.0961 28.2107 32.05 28.2688 31.992L29.2063 31.0544C29.3236 30.9371 29.3895 30.7781 29.3895 30.6122C29.3895 30.4463 29.3236 30.2873 29.2063 30.17C29.089 30.0527 28.93 29.9868 28.7641 29.9868C28.5982 29.9868 28.4392 30.0527 28.3219 30.17Z" fill="#B20932"/>
<path d="M20.4408 5.18273C20.3237 5.06632 20.1652 5.00098 20.0001 5.00098C19.835 5.00098 19.6766 5.06632 19.5595 5.18273L5.18371 19.5585C5.0673 19.6756 5.00195 19.834 5.00195 19.9991C5.00195 20.1643 5.0673 20.3227 5.18371 20.4398C5.18371 20.4398 19.5407 34.8156 19.5595 34.8156C19.6766 34.932 19.835 34.9973 20.0001 34.9973C20.1652 34.9973 20.3237 34.932 20.4408 34.8156L34.8165 20.4398C34.9329 20.3227 34.9983 20.1643 34.9983 19.9991C34.9983 19.834 34.9329 19.6756 34.8165 19.5585L20.4408 5.18273ZM26.9442 17.8865L17.0531 27.6308C16.9363 27.7453 16.7792 27.8095 16.6156 27.8095C16.452 27.8095 16.2949 27.7453 16.178 27.6308L12.4278 23.9431C12.0756 23.5892 11.8783 23.1098 11.8795 22.6105C11.8807 22.1111 12.0802 21.6327 12.4341 21.2805C12.788 20.9282 13.2674 20.731 13.7667 20.7321C14.266 20.7333 14.7445 20.9328 15.0967 21.2867L16.6124 22.7837L24.2753 15.2333C24.5431 14.9701 24.8826 14.7921 25.2513 14.7215C25.62 14.6508 26.0013 14.6908 26.3473 14.8364C26.6299 14.956 26.8787 15.1432 27.072 15.3814C27.2654 15.6197 27.3973 15.9017 27.4562 16.2029C27.5151 16.504 27.4993 16.8149 27.41 17.1085C27.3207 17.402 27.1608 17.6692 26.9442 17.8865Z" fill="#2547C7"/>
</svg>
