<svg width="20" height="20" viewBox="0 0 20 20" fill="none" xmlns="http://www.w3.org/2000/svg">
<path d="M13.6412 18.6631H6.35888C3.60221 18.6631 1.3595 16.4204 1.3595 13.6638V6.33634C1.3595 3.57962 3.60221 1.33691 6.35888 1.33691H13.6412C16.3979 1.33691 18.6406 3.57962 18.6406 6.33634V13.6638C18.6406 16.4204 16.3978 18.6631 13.6412 18.6631ZM6.35888 3.39142C4.73503 3.39142 3.41397 4.71248 3.41397 6.33634V13.6638C3.41397 15.2876 4.73503 16.6087 6.35888 16.6087H13.6412C15.265 16.6087 16.5861 15.2876 16.5861 13.6638V6.33634C16.5861 4.71248 15.265 3.39142 13.6412 3.39142H6.35888Z" fill="#2547C7"/>
<path d="M10 14.2868C7.6364 14.2868 5.7135 12.3639 5.7135 10.0004C5.7135 7.63676 7.63644 5.71387 10 5.71387C12.3636 5.71387 14.2865 7.6368 14.2865 10.0004C14.2865 12.3639 12.3636 14.2868 10 14.2868ZM10 7.71793C8.7415 7.71793 7.71757 8.74182 7.71757 10.0004C7.71757 11.2589 8.74146 12.2828 10 12.2828C11.2586 12.2828 12.2824 11.2589 12.2824 10.0004C12.2824 8.74182 11.2585 7.71793 10 7.71793Z" fill="#2547C7"/>
<path d="M14.3874 6.36901C13.9701 6.36901 13.6306 6.02954 13.6306 5.61224C13.6306 5.19494 13.9701 4.85547 14.3874 4.85547C14.8047 4.85547 15.1442 5.19494 15.1442 5.61224C15.1442 6.02954 14.8047 6.36901 14.3874 6.36901Z" fill="#2547C7"/>
<path d="M13.6412 19.0227H6.35884C3.40395 19.0227 1 16.6187 1 13.6638V6.33642C1 3.38149 3.40395 0.977539 6.35884 0.977539H13.6412C16.596 0.977539 19 3.38149 19 6.33642V13.6639C19 16.6187 16.596 19.0227 13.6412 19.0227ZM6.35884 1.69646C3.80035 1.69646 1.71892 3.77789 1.71892 6.33638V13.6638C1.71892 16.2223 3.80035 18.3037 6.35884 18.3037H13.6412C16.1996 18.3037 18.281 16.2223 18.281 13.6638V6.33642C18.281 3.77792 16.1996 1.69649 13.6412 1.69649H6.35884V1.69646ZM13.6412 16.9682H6.35884C4.53678 16.9682 3.05447 15.4859 3.05447 13.6638V6.33642C3.05447 4.51435 4.53678 3.03208 6.35884 3.03208H13.6412C15.4632 3.03208 16.9455 4.51439 16.9455 6.33642V13.6639C16.9455 15.4859 15.4632 16.9682 13.6412 16.9682ZM6.35884 3.75096C4.93321 3.75096 3.77338 4.91078 3.77338 6.33638V13.6638C3.77338 15.0894 4.93321 16.2493 6.35884 16.2493H13.6412C15.0668 16.2493 16.2266 15.0894 16.2266 13.6638V6.33642C16.2266 4.91082 15.0668 3.75099 13.6412 3.75099H6.35884V3.75096Z" fill="#2547C7"/>
<path d="M9.99996 14.6464C7.43815 14.6464 5.354 12.5623 5.354 10.0005C5.354 7.43867 7.43818 5.35449 9.99996 5.35449C12.5617 5.35449 14.6459 7.43867 14.6459 10.0005C14.6459 12.5623 12.5618 14.6464 9.99996 14.6464ZM9.99996 6.07344C7.83461 6.07344 6.07296 7.8351 6.07296 10.0005C6.07296 12.1658 7.83461 13.9275 9.99996 13.9275C12.1653 13.9275 13.927 12.1658 13.927 10.0005C13.927 7.8351 12.1653 6.07344 9.99996 6.07344ZM9.99996 12.6424C8.54324 12.6424 7.35807 11.4572 7.35807 10.0005C7.35807 8.54376 8.54324 7.3586 9.99996 7.3586C11.4567 7.3586 12.6418 8.54376 12.6418 10.0005C12.6418 11.4572 11.4567 12.6424 9.99996 12.6424ZM9.99996 8.07751C8.93963 8.07751 8.07699 8.94015 8.07699 10.0005C8.07699 11.0608 8.93963 11.9235 9.99996 11.9235C11.0603 11.9235 11.9229 11.0608 11.9229 10.0005C11.9229 8.94012 11.0603 8.07751 9.99996 8.07751Z" fill="#2547C7"/>
<path d="M14.3874 6.72865C13.7719 6.72865 13.2711 6.22793 13.2711 5.61239C13.2711 4.99685 13.7719 4.49609 14.3874 4.49609C15.0029 4.49609 15.5037 4.99688 15.5037 5.61239C15.5037 6.22789 15.0029 6.72865 14.3874 6.72865ZM14.3874 5.21504C14.1683 5.21504 13.9901 5.39327 13.9901 5.61239C13.9901 5.83147 14.1683 6.0097 14.3874 6.0097C14.6065 6.0097 14.7847 5.83147 14.7847 5.61239C14.7848 5.39331 14.6065 5.21504 14.3874 5.21504Z" fill="#2547C7"/>
<path d="M9.42485 18.0158H6.04586C5.84733 18.0158 5.6864 17.8549 5.6864 17.6563C5.6864 17.4578 5.84733 17.2969 6.04586 17.2969H9.42485C9.62338 17.2969 9.78431 17.4578 9.78431 17.6563C9.78431 17.8549 9.62338 18.0158 9.42485 18.0158Z" fill="#2547C7"/>
<path d="M10.7907 18.0158H10.575C10.3765 18.0158 10.2156 17.8549 10.2156 17.6563C10.2156 17.4578 10.3765 17.2969 10.575 17.2969H10.7907C10.9892 17.2969 11.1502 17.4578 11.1502 17.6563C11.1502 17.8549 10.9893 18.0158 10.7907 18.0158Z" fill="#2547C7"/>
</svg>
