<svg width="217" height="140" viewBox="0 0 217 140" fill="none" xmlns="http://www.w3.org/2000/svg">
<path d="M72.1813 -1.82153e-05C73.9368 -1.80618e-05 75.6922 0.438871 77.2283 1.53605C79.4226 3.07211 80.7393 5.26645 80.9587 7.89967C81.1781 10.7523 80.081 13.605 77.6672 15.5799C71.523 21.2853 66.4759 27.4295 62.3067 34.4514C64.9399 34.8903 67.7926 35.768 70.4258 36.6458C83.8114 41.2539 94.5637 50.9091 100.708 63.8558C106.852 76.8025 107.73 91.0658 102.902 104.451C95.4415 125.737 75.2534 140 52.6515 140C46.7267 140 40.802 138.903 35.0966 136.928C27.1969 134.075 20.3944 129.687 14.6891 123.762C1.30352 109.718 -3.30463 88.8715 2.4007 69.3417C4.59506 62.1003 7.66715 55.2978 11.617 48.7147C17.1029 39.9373 23.686 32.6959 28.733 27.4295C40.3631 15.3605 53.9681 6.14419 68.2314 0.658307C69.7675 0.219433 70.8647 -1.83304e-05 72.1813 -1.82153e-05Z" fill="#EBAE6C" fill-opacity="0.2"/>
<path d="M183.181 -1.82153e-05C184.937 -1.80618e-05 186.692 0.438871 188.228 1.53605C190.423 3.07211 191.739 5.26645 191.959 7.89967C192.178 10.7523 191.081 13.605 188.667 15.5799C182.523 21.2853 177.476 27.4295 173.307 34.4514C175.94 34.8903 178.793 35.768 181.426 36.6458C194.811 41.2539 205.564 50.9091 211.708 63.8558C217.852 76.8025 218.73 91.0658 213.902 104.451C206.441 125.737 186.253 140 163.651 140C157.727 140 151.802 138.903 146.097 136.928C138.197 134.075 131.394 129.687 125.689 123.762C112.304 109.718 107.695 88.8715 113.401 69.3417C115.595 62.1003 118.667 55.2978 122.617 48.7147C128.103 39.9373 134.686 32.6959 139.733 27.4295C151.363 15.3605 164.968 6.14419 179.231 0.658307C180.767 0.219433 181.865 -1.83304e-05 183.181 -1.82153e-05Z" fill="#EBAE6C" fill-opacity="0.2"/>
</svg>
