<svg width="20" height="20" viewBox="0 0 20 20" fill="none" xmlns="http://www.w3.org/2000/svg">
<g clip-path="url(#clip0_449_4751)">
<path d="M16.9251 11.4761C17.5621 12.0979 18.2344 12.6831 18.8057 13.3676C19.058 13.6719 19.2969 13.9858 19.4797 14.3388C19.7387 14.8407 19.5041 15.393 19.0541 15.423L16.2567 15.4217C15.5352 15.4816 14.9596 15.1911 14.4757 14.6978C14.0884 14.3033 13.7297 13.8834 13.3573 13.4756C13.2046 13.3089 13.0448 13.1521 12.8539 13.0281C12.472 12.7802 12.1405 12.8561 11.9223 13.2544C11.7 13.6595 11.6496 14.1081 11.6278 14.5596C11.5978 15.2183 11.3987 15.3915 10.737 15.4217C9.32287 15.4883 7.98079 15.2744 6.73402 14.561C5.63488 13.9321 4.78253 13.0443 4.04061 12.0392C2.59611 10.0821 1.48993 7.93154 0.495784 5.72067C0.271993 5.22258 0.435666 4.9552 0.98524 4.94571C1.89786 4.92797 2.81033 4.92926 3.72401 4.94442C4.09491 4.94985 4.34045 5.16258 4.4837 5.51301C4.97745 6.72708 5.58163 7.88217 6.33996 8.9528C6.54191 9.23784 6.74781 9.52288 7.0411 9.72351C7.36551 9.94566 7.6125 9.87202 7.76512 9.51065C7.86196 9.28151 7.90434 9.03471 7.92618 8.78928C7.99848 7.94494 8.00802 7.10201 7.88122 6.26067C7.80337 5.73555 7.50762 5.39567 6.9836 5.29625C6.71621 5.24559 6.75602 5.1461 6.88547 4.99348C7.11031 4.73027 7.32184 4.56641 7.74337 4.56641H10.9049C11.4026 4.66465 11.5132 4.88824 11.5813 5.38903L11.584 8.90088C11.5785 9.09479 11.6808 9.67011 12.03 9.79843C12.3095 9.8898 12.4937 9.6662 12.6614 9.48897C13.4184 8.68557 13.9586 7.73611 14.4413 6.75294C14.6555 6.32064 14.8397 5.87169 15.0181 5.42313C15.1504 5.09028 15.3579 4.92645 15.7328 4.93375L18.7757 4.93645C18.8659 4.93645 18.9572 4.93778 19.0446 4.95274C19.5573 5.04012 19.6978 5.26071 19.5394 5.76137C19.29 6.54693 18.8044 7.20154 18.3298 7.8592C17.8223 8.56131 17.2796 9.23944 16.7764 9.94577C16.3141 10.5907 16.3508 10.9159 16.9251 11.4761Z" fill="#2547C7"/>
<path d="M10.263 15.8313C8.84389 15.8314 7.62068 15.5273 6.53607 14.9067C5.50375 14.3161 4.60894 13.4801 3.71995 12.2757C2.45745 10.565 1.35096 8.5937 0.132356 5.88396C-0.0381141 5.5045 -0.0439345 5.18516 0.115012 4.93477C0.273724 4.68477 0.564155 4.55442 0.978259 4.54727C1.85623 4.5302 2.75682 4.52981 3.73058 4.54602C4.24168 4.55352 4.64035 4.84332 4.85242 5.36219C5.36739 6.62845 5.96024 7.7274 6.66497 8.72245C6.84142 8.97143 7.02388 9.22901 7.26599 9.39464L7.26716 9.39542C7.31291 9.42667 7.37572 9.4082 7.39736 9.35726L7.39806 9.35558C7.46529 9.19659 7.50689 9.00542 7.52927 8.75389C7.60955 7.81705 7.59619 7.04326 7.48716 6.31993C7.43197 5.94763 7.25384 5.7529 6.90931 5.68755C6.81146 5.66903 6.51353 5.61259 6.41353 5.32981C6.3147 5.05036 6.50864 4.82176 6.58169 4.73567C6.83396 4.44035 7.14857 4.16797 7.74334 4.16797H10.9049C10.9294 4.16797 10.9542 4.17008 10.9782 4.17477C11.7746 4.33043 11.9078 4.83348 11.9761 5.33528C11.9784 5.35298 11.9797 5.37083 11.9797 5.38868L11.9824 8.90054C11.9824 8.90436 11.9823 8.90819 11.9822 8.91206C11.9802 8.98499 12 9.0889 12.03 9.18429C12.0718 9.31667 12.2415 9.35444 12.3364 9.25308C12.3369 9.25253 12.3375 9.25194 12.338 9.2514L12.3721 9.21515C13.1386 8.40159 13.6675 7.42514 14.0837 6.57736C14.3013 6.13822 14.489 5.67528 14.6481 5.27583C14.8467 4.77567 15.2113 4.52656 15.7367 4.53535L18.7761 4.53805C18.8807 4.53805 18.9932 4.53973 19.1118 4.56004C19.3545 4.60141 19.699 4.69164 19.8847 4.99606C20.0705 5.30044 19.9934 5.64716 19.9193 5.88146C19.6597 6.69865 19.1752 7.3692 18.7067 8.01776L18.6528 8.09237C18.4126 8.42467 18.1621 8.75511 17.9197 9.07464C17.6471 9.43409 17.3652 9.80581 17.1009 10.1769C16.924 10.4236 16.8471 10.5905 16.8584 10.703C16.8698 10.8175 16.9794 10.9725 17.2032 11.1908C17.2033 11.1908 17.2033 11.1909 17.2034 11.1909C17.3698 11.3534 17.5425 11.517 17.7096 11.6752C18.185 12.1254 18.6764 12.5909 19.1115 13.1123C19.3511 13.4011 19.6236 13.7502 19.8335 14.1556C20.0347 14.5457 20.0377 14.9857 19.8416 15.333C19.6787 15.6214 19.4013 15.7991 19.0805 15.8204C19.0716 15.821 19.0628 15.8213 19.054 15.8213C19.0539 15.8213 19.0539 15.8213 19.0538 15.8213L16.2724 15.82C15.4983 15.8795 14.7983 15.5956 14.1912 14.9767C13.9227 14.7033 13.6665 14.4166 13.4188 14.1394C13.3024 14.0092 13.182 13.8745 13.063 13.7442C12.9455 13.6159 12.8027 13.4698 12.6368 13.3621C12.546 13.3032 12.4644 13.275 12.4184 13.2865C12.3751 13.2974 12.3202 13.3569 12.2715 13.4457C12.0975 13.7629 12.0473 14.1279 12.0255 14.5786C11.9867 15.4313 11.6305 15.7796 10.755 15.8194C10.5885 15.8274 10.4244 15.8313 10.263 15.8313ZM0.798649 5.36887C0.802516 5.40102 0.815914 5.46106 0.859157 5.55727C2.0535 8.21315 3.13354 10.1393 4.36113 11.8025C5.18203 12.9147 5.99891 13.6813 6.93181 14.2151C8.0042 14.8287 9.24256 15.0929 10.7182 15.0235C11.0253 15.0095 11.1173 14.9635 11.1448 14.9373C11.1659 14.9174 11.2162 14.8388 11.2298 14.5413C11.2533 14.0548 11.3111 13.5399 11.5729 13.0626C11.7751 12.6937 12.0384 12.5605 12.2237 12.5138C12.4109 12.4666 12.71 12.4595 13.0707 12.6937C13.3117 12.8502 13.4993 13.0406 13.6509 13.2063C13.7733 13.3403 13.8951 13.4766 14.0128 13.6083C14.2545 13.8787 14.5044 14.1583 14.7599 14.4185C15.2102 14.8775 15.6758 15.0701 16.2237 15.0244C16.2346 15.0235 16.2456 15.0231 16.2566 15.0231C16.2567 15.0231 16.2567 15.0231 16.2568 15.0231L19.0377 15.0244C19.0621 15.0214 19.1094 15.009 19.1478 14.9411C19.1947 14.858 19.217 14.6983 19.1257 14.5213C18.9508 14.1835 18.7107 13.877 18.499 13.6217C18.0946 13.137 17.6414 12.7079 17.1617 12.2535C16.9925 12.0932 16.8176 11.9275 16.6469 11.7609C15.9248 11.0566 15.8739 10.5207 16.4526 9.71343C16.7232 9.33355 17.0087 8.95706 17.2849 8.59296C17.5245 8.27698 17.7722 7.9503 18.0069 7.62561L18.0608 7.55088C18.5124 6.9258 18.939 6.3354 19.1598 5.64052C19.2036 5.50192 19.2041 5.43552 19.202 5.41243C19.1823 5.40001 19.1226 5.36993 18.9776 5.3452C18.9203 5.3354 18.8465 5.33458 18.7757 5.33458L15.7325 5.33188C15.73 5.33188 15.7276 5.33188 15.7251 5.3318C15.546 5.32801 15.4709 5.36223 15.3884 5.57001C15.2235 5.98431 15.0285 6.46494 14.7983 6.92959C14.3565 7.8294 13.7911 8.87073 12.9514 9.76195L12.9196 9.79578C12.7411 9.98636 12.4087 10.3411 11.9063 10.1769C11.9017 10.1753 11.8971 10.1738 11.8926 10.1721C11.3407 9.96933 11.1786 9.22956 11.1855 8.89597L11.1829 5.41649C11.1652 5.29223 11.1363 5.13325 11.0858 5.06598C11.0739 5.05016 11.0391 5.00391 10.8636 4.96454H7.74342C7.61619 4.96454 7.52451 4.98219 7.44318 5.02454C7.90111 5.23227 8.19182 5.63895 8.27529 6.20197C8.39373 6.98779 8.40897 7.82096 8.32315 8.823C8.29311 9.16073 8.23244 9.42804 8.13209 9.66542C7.97654 10.0337 7.7456 10.1692 7.5792 10.218C7.41287 10.2668 7.14552 10.2776 6.81599 10.0519C6.4563 9.80582 6.21149 9.46038 6.01485 9.1828C5.27426 8.13717 4.65273 6.9858 4.11464 5.66278C4.00074 5.38407 3.85031 5.34442 3.7182 5.34247C2.75323 5.32637 1.86205 5.3268 0.992986 5.34368C0.88861 5.34571 0.829117 5.35887 0.798649 5.36887Z" fill="#2547C7"/>
<path d="M2.55038 7.20409C2.40487 7.20409 2.2646 7.12409 2.19448 6.98534C2.13487 6.86741 2.07581 6.74913 2.01725 6.63061C1.91979 6.43334 2.00073 6.1944 2.19799 6.09697C2.39538 5.99947 2.63417 6.08049 2.73163 6.27772C2.78909 6.39405 2.8471 6.51014 2.90561 6.62592C3.00483 6.82229 2.92612 7.06191 2.72975 7.1612C2.67214 7.19031 2.61077 7.20409 2.55038 7.20409Z" fill="#2547C7"/>
<path d="M5.08425 11.3941C4.9621 11.3941 4.84152 11.3381 4.76339 11.2322C4.08925 10.3188 3.45967 9.32877 2.83873 8.20545C2.73229 8.01291 2.80213 7.77049 2.99467 7.66404C3.18721 7.55763 3.42963 7.6274 3.53608 7.81998C4.13999 8.91252 4.75117 9.87393 5.40445 10.759C5.53508 10.936 5.4975 11.1855 5.3205 11.3161C5.24937 11.3688 5.16644 11.3941 5.08425 11.3941Z" fill="#2547C7"/>
</g>
<defs>
<clipPath id="clip0_449_4751">
<rect width="20" height="20" fill="white"/>
</clipPath>
</defs>
</svg>
