<svg width="34" height="24" viewBox="0 0 34 24" fill="none" xmlns="http://www.w3.org/2000/svg">
<path d="M0.760869 20.2972C1.45456 22.7518 3.57667 23.201 3.71824 23.2871C7.21074 24.2362 26.7869 24.239 30.3318 23.2871C32.7597 22.5866 33.2056 20.4384 33.2891 20.2972C34.2136 15.3906 34.2744 8.9941 33.2467 3.42661L33.2891 3.70343C32.5954 1.24876 30.4733 0.79963 30.3318 0.713476C26.886 -0.220089 7.25888 -0.255398 3.71824 0.713476C1.29034 1.41542 0.844394 3.56219 0.760869 3.70343C-0.228697 8.85993 -0.278246 14.7763 0.760869 20.2972ZM13.6238 17.1575V6.85721L22.4945 12.0151L13.6238 17.1575Z" fill="#E53935"/>
</svg>
